<svg xmlns="http://www.w3.org/2000/svg" version="1.1" xmlns:xlink="http://www.w3.org/1999/xlink" xmlns:svgjs="http://svgjs.dev/svgjs" width="2000" height="1045" viewBox="0 0 2000 1045"><g transform="matrix(1,0,0,1,-1.2112696095522324,0.9121234414252513)"><svg viewBox="0 0 396 207" data-background-color="#dedede" preserveAspectRatio="xMidYMid meet" height="1045" width="2000" xmlns="http://www.w3.org/2000/svg" xmlns:xlink="http://www.w3.org/1999/xlink"><g id="tight-bounds" transform="matrix(1,0,0,1,0.24008861730862918,-0.1806789974880587)"><svg viewBox="0 0 395.52 207.36134787878785" height="207.36134787878785" width="395.52"><g><svg viewBox="0 0 395.52 207.36134787878785" height="207.36134787878785" width="395.52"><g><svg viewBox="0 0 395.52 207.36134787878785" height="207.36134787878785" width="395.52"><g id="textblocktransform"><svg viewBox="0 0 395.52 207.36134787878785" height="207.36134787878785" width="395.52" id="textblock"><g><svg viewBox="0 0 395.52 207.36134787878785" height="207.36134787878785" width="395.52"><path d="M394.594 44.475C392.735 22.951 387.435 16.967 387.435 16.967 371.165-5.202 350.86-0.424 332.619 2.761 300.414 2.891 268.339 7.626 236.208 10.166 168.767 10.553 100.749 4.182 33.643 19.895 27.339 24.716-6.54 20.842 1.121 47.23 3.129 58.207 10.456 70.39 10.232 80.463 11.236 82.228 12.631 78.182 13.226 80.722 15.309 87.566 18.711 84.338 21.501 88.384 17.614 99.189 20.403 108.186 23.062 117.614 18.377 120.067 12.371 118.905 9.675 127.041 9.396 132.939 7.89 131.82 6.235 131.561 5.026 131.389 2.59 132.035 2.999 133.886 4.394 140.214-1.594 143.873 2.162 150.072-0.422 156.787 3.948 162.599 3.353 169.874 3.278 171.338 3.687 172.586 4.338 172.93 7.22 174.782 3.018 178.398 3.464 182.315 33.029 209.091 65.104 190.58 95.394 202.892 103.259 194.282 97.346 205.948 100.489 204.14 102.943 202.031 104.728 210.77 107.499 205.819 107.927 204.399 107.276 201.041 108.8 201.687 109.6 202.031 110.307 201.945 110.418 199.965 110.586 196.994 109.117 198.845 108.726 197.296 112.947 189.461 111.906 208.101 115.866 207.326 115.68 205.044 114.528 201.773 116.889 202.203 119.232 198.932 119.306 196.219 121.389 203.581 121.463 205.173 121.835 206.293 122.43 207.068 128.938 199.061 135.409 209.909 142.233 206.293 146.417 202.332 150.433 208.445 154.672 206.938 156.16 205.733 157.666 203.581 159.098 207.197 176.632 207.972 195.319 204.743 211.943 207.326 256.364 202.505 303.836 209.306 350.674 202.935 361.719 200.481 373.192 196.994 383.958 194.196 383.958 194.196 392.679 186.534 392.679 152.095S394.538 121.962 394.817 94.54C395.096 67.118 396.398 65.999 394.538 44.475Z" opacity="1" fill="#ff0000" data-fill-palette-color="tertiary"></path><g transform="matrix(1,0,0,1,55.76832,26.230666666666668)"><svg width="283.98335999999995" viewBox="2.25 -36 66 36" height="154.90001454545452" data-palette-color="#000000"><path d="M31.1-18.45L22.75-7.15 12.6-7.15 4.15-18.45Q3-20 2.63-21.15 2.25-22.3 2.25-24.6L2.25-24.6 2.25-34.2Q2.25-35.15 2.68-35.58 3.1-36 4.05-36L4.05-36 11.75-36Q12.7-36 13.13-35.58 13.55-35.15 13.55-34.2L13.55-34.2 13.55-26Q13.55-25.5 13.6-24.95 13.65-24.4 14-23.9L14-23.9 16.3-20.3Q16.55-19.85 16.82-19.65 17.1-19.45 17.5-19.45L17.5-19.45 18-19.45Q18.4-19.45 18.68-19.65 18.95-19.85 19.2-20.3L19.2-20.3 21.5-23.9Q21.85-24.4 21.9-24.95 21.95-25.5 21.95-26L21.95-26 21.95-34.2Q21.95-35.15 22.38-35.58 22.8-36 23.75-36L23.75-36 31.2-36Q32.15-36 32.58-35.58 33-35.15 33-34.2L33-34.2 33-24.6Q33-22.3 32.6-21.15 32.2-20 31.1-18.45L31.1-18.45ZM21.7 0L21.7 0 13.6 0Q12.65 0 12.23-0.43 11.8-0.85 11.8-1.8L11.8-1.8 11.8-11.2 23.5-11.2 23.5-1.8Q23.5-0.85 23.08-0.43 22.65 0 21.7 0ZM66.35-18.45L58-7.15 47.85-7.15 39.4-18.45Q38.25-20 37.87-21.15 37.5-22.3 37.5-24.6L37.5-24.6 37.5-34.2Q37.5-35.15 37.92-35.58 38.35-36 39.3-36L39.3-36 47-36Q47.95-36 48.37-35.58 48.8-35.15 48.8-34.2L48.8-34.2 48.8-26Q48.8-25.5 48.85-24.95 48.9-24.4 49.25-23.9L49.25-23.9 51.55-20.3Q51.8-19.85 52.07-19.65 52.35-19.45 52.75-19.45L52.75-19.45 53.25-19.45Q53.65-19.45 53.92-19.65 54.2-19.85 54.45-20.3L54.45-20.3 56.75-23.9Q57.1-24.4 57.15-24.95 57.2-25.5 57.2-26L57.2-26 57.2-34.2Q57.2-35.15 57.62-35.58 58.05-36 59-36L59-36 66.45-36Q67.4-36 67.82-35.58 68.25-35.15 68.25-34.2L68.25-34.2 68.25-24.6Q68.25-22.3 67.85-21.15 67.45-20 66.35-18.45L66.35-18.45ZM56.95 0L56.95 0 48.85 0Q47.9 0 47.47-0.43 47.05-0.85 47.05-1.8L47.05-1.8 47.05-11.2 58.75-11.2 58.75-1.8Q58.75-0.85 58.32-0.43 57.9 0 56.95 0Z" opacity="1" transform="matrix(1,0,0,1,0,0)" fill="#000000" class="wordmark-text-0" data-fill-palette-color="quaternary" id="text-0"></path></svg></g></svg></g></svg></g></svg></g><g></g></svg></g><defs></defs></svg><rect width="395.52" height="207.36134787878785" fill="none" stroke="none" visibility="hidden"></rect></g></svg></g></svg>